# Blender 4.2.1 LTS
# www.blender.org
mtllib CIrcle.mtl
o Curve
v 0.000000 0.000000 0.141084
v 0.001289 0.000000 0.121948
v 0.005044 0.000000 0.103592
v 0.011095 0.000000 0.086185
v 0.019275 0.000000 0.069894
v 0.029415 0.000000 0.054889
v 0.041346 0.000000 0.041338
v 0.054901 0.000000 0.029409
v 0.069909 0.000000 0.019271
v 0.086203 0.000000 0.011093
v 0.103614 0.000000 0.005042
v 0.121974 0.000000 0.001289
v 0.141114 0.000000 0.000000
v 0.160254 0.000000 0.001289
v 0.178614 0.000000 0.005042
v 0.196025 0.000000 0.011093
v 0.212319 0.000000 0.019271
v 0.227327 0.000000 0.029409
v 0.240882 0.000000 0.041338
v 0.252813 0.000000 0.054889
v 0.262953 0.000000 0.069894
v 0.271133 0.000000 0.086185
v 0.277184 0.000000 0.103592
v 0.280939 0.000000 0.121948
v 0.282228 0.000000 0.141084
v 0.280939 0.000000 0.160220
v 0.277184 0.000000 0.178576
v 0.271133 0.000000 0.195984
v 0.262953 0.000000 0.212274
v 0.252813 0.000000 0.227279
v 0.240882 0.000000 0.240831
v 0.227327 0.000000 0.252760
v 0.212319 0.000000 0.262897
v 0.196025 0.000000 0.271076
v 0.178614 0.000000 0.277126
v 0.160254 0.000000 0.280880
v 0.141114 0.000000 0.282168
v 0.121974 0.000000 0.280880
v 0.103614 0.000000 0.277126
v 0.086203 0.000000 0.271076
v 0.069909 0.000000 0.262897
v 0.054901 0.000000 0.252759
v 0.041346 0.000000 0.240831
v 0.029415 0.000000 0.227279
v 0.019275 0.000000 0.212274
v 0.011095 0.000000 0.195984
v 0.005044 0.000000 0.178576
v 0.001289 0.000000 0.160220
vn -0.0000 1.0000 -0.0000
vt 0.234043 0.000000
vt 0.276596 0.000000
vt 0.255319 0.000000
vt 0.297872 0.000000
vt 0.212766 0.000000
vt 0.319149 0.000000
vt 0.191489 0.000000
vt 0.340426 0.000000
vt 0.170213 0.000000
vt 0.361702 0.000000
vt 0.148936 0.000000
vt 0.382979 0.000000
vt 0.127660 0.000000
vt 0.404255 0.000000
vt 0.106383 0.000000
vt 0.425532 0.000000
vt 0.085106 0.000000
vt 0.446809 0.000000
vt 0.063830 0.000000
vt 0.468085 0.000000
vt 0.042553 0.000000
vt 0.489362 0.000000
vt 0.021277 0.000000
vt 0.510638 0.000000
vt 0.000000 0.000000
vt 1.000000 0.000000
vt 0.531915 0.000000
vt 0.978723 0.000000
vt 0.553191 0.000000
vt 0.957447 0.000000
vt 0.574468 0.000000
vt 0.936170 0.000000
vt 0.595745 0.000000
vt 0.914894 0.000000
vt 0.617021 0.000000
vt 0.893617 0.000000
vt 0.638298 0.000000
vt 0.872340 0.000000
vt 0.659574 0.000000
vt 0.851064 0.000000
vt 0.680851 0.000000
vt 0.829787 0.000000
vt 0.702128 0.000000
vt 0.808511 0.000000
vt 0.723404 0.000000
vt 0.787234 0.000000
vt 0.744681 0.000000
vt 0.765957 0.000000
s 0
usemtl SVGMat.001
f 12/1/1 14/2/1 13/3/1
f 12/1/1 15/4/1 14/2/1
f 11/5/1 15/4/1 12/1/1
f 11/5/1 16/6/1 15/4/1
f 10/7/1 16/6/1 11/5/1
f 10/7/1 17/8/1 16/6/1
f 9/9/1 17/8/1 10/7/1
f 9/9/1 18/10/1 17/8/1
f 8/11/1 18/10/1 9/9/1
f 8/11/1 19/12/1 18/10/1
f 7/13/1 19/12/1 8/11/1
f 7/13/1 20/14/1 19/12/1
f 6/15/1 20/14/1 7/13/1
f 6/15/1 21/16/1 20/14/1
f 5/17/1 21/16/1 6/15/1
f 5/17/1 22/18/1 21/16/1
f 4/19/1 22/18/1 5/17/1
f 4/19/1 23/20/1 22/18/1
f 3/21/1 23/20/1 4/19/1
f 3/21/1 24/22/1 23/20/1
f 2/23/1 24/22/1 3/21/1
f 2/23/1 25/24/1 24/22/1
f 1/25/1 25/24/1 2/23/1
f 48/26/1 25/24/1 1/25/1
f 48/26/1 26/27/1 25/24/1
f 47/28/1 26/27/1 48/26/1
f 47/28/1 27/29/1 26/27/1
f 46/30/1 27/29/1 47/28/1
f 46/30/1 28/31/1 27/29/1
f 45/32/1 28/31/1 46/30/1
f 45/32/1 29/33/1 28/31/1
f 44/34/1 29/33/1 45/32/1
f 44/34/1 30/35/1 29/33/1
f 43/36/1 30/35/1 44/34/1
f 43/36/1 31/37/1 30/35/1
f 42/38/1 31/37/1 43/36/1
f 42/38/1 32/39/1 31/37/1
f 41/40/1 32/39/1 42/38/1
f 41/40/1 33/41/1 32/39/1
f 40/42/1 33/41/1 41/40/1
f 40/42/1 34/43/1 33/41/1
f 39/44/1 34/43/1 40/42/1
f 39/44/1 35/45/1 34/43/1
f 38/46/1 35/45/1 39/44/1
f 38/46/1 36/47/1 35/45/1
f 37/48/1 36/47/1 38/46/1
o Curve
v 0.000000 0.000000 0.141084
v 0.001289 0.000000 0.121948
v 0.005044 0.000000 0.103592
v 0.011095 0.000000 0.086185
v 0.019275 0.000000 0.069894
v 0.029415 0.000000 0.054889
v 0.041346 0.000000 0.041338
v 0.054901 0.000000 0.029409
v 0.069909 0.000000 0.019271
v 0.086203 0.000000 0.011093
v 0.103614 0.000000 0.005042
v 0.121974 0.000000 0.001289
v 0.141114 0.000000 0.000000
v 0.160254 0.000000 0.001289
v 0.178614 0.000000 0.005042
v 0.196025 0.000000 0.011093
v 0.212319 0.000000 0.019271
v 0.227327 0.000000 0.029409
v 0.240882 0.000000 0.041338
v 0.252813 0.000000 0.054889
v 0.262953 0.000000 0.069894
v 0.271133 0.000000 0.086185
v 0.277184 0.000000 0.103592
v 0.280939 0.000000 0.121948
v 0.282228 0.000000 0.141084
v 0.280939 0.000000 0.160220
v 0.277184 0.000000 0.178576
v 0.271133 0.000000 0.195984
v 0.262953 0.000000 0.212274
v 0.252813 0.000000 0.227279
v 0.240882 0.000000 0.240831
v 0.227327 0.000000 0.252760
v 0.212319 0.000000 0.262897
v 0.196025 0.000000 0.271076
v 0.178614 0.000000 0.277126
v 0.160254 0.000000 0.280880
v 0.141114 0.000000 0.282168
v 0.121974 0.000000 0.280880
v 0.103614 0.000000 0.277126
v 0.086203 0.000000 0.271076
v 0.069909 0.000000 0.262897
v 0.054901 0.000000 0.252759
v 0.041346 0.000000 0.240831
v 0.029415 0.000000 0.227279
v 0.019275 0.000000 0.212274
v 0.011095 0.000000 0.195984
v 0.005044 0.000000 0.178576
v 0.001289 0.000000 0.160220
vn -0.0000 1.0000 -0.0000
vt 0.234043 0.000000
vt 0.276596 0.000000
vt 0.255319 0.000000
vt 0.297872 0.000000
vt 0.212766 0.000000
vt 0.319149 0.000000
vt 0.191489 0.000000
vt 0.340426 0.000000
vt 0.170213 0.000000
vt 0.361702 0.000000
vt 0.148936 0.000000
vt 0.382979 0.000000
vt 0.127660 0.000000
vt 0.404255 0.000000
vt 0.106383 0.000000
vt 0.425532 0.000000
vt 0.085106 0.000000
vt 0.446809 0.000000
vt 0.063830 0.000000
vt 0.468085 0.000000
vt 0.042553 0.000000
vt 0.489362 0.000000
vt 0.021277 0.000000
vt 0.510638 0.000000
vt 0.000000 0.000000
vt 1.000000 0.000000
vt 0.531915 0.000000
vt 0.978723 0.000000
vt 0.553191 0.000000
vt 0.957447 0.000000
vt 0.574468 0.000000
vt 0.936170 0.000000
vt 0.595745 0.000000
vt 0.914894 0.000000
vt 0.617021 0.000000
vt 0.893617 0.000000
vt 0.638298 0.000000
vt 0.872340 0.000000
vt 0.659574 0.000000
vt 0.851064 0.000000
vt 0.680851 0.000000
vt 0.829787 0.000000
vt 0.702128 0.000000
vt 0.808511 0.000000
vt 0.723404 0.000000
vt 0.787234 0.000000
vt 0.744681 0.000000
vt 0.765957 0.000000
s 0
usemtl SVGMat.001
f 60/49/2 62/50/2 61/51/2
f 60/49/2 63/52/2 62/50/2
f 59/53/2 63/52/2 60/49/2
f 59/53/2 64/54/2 63/52/2
f 58/55/2 64/54/2 59/53/2
f 58/55/2 65/56/2 64/54/2
f 57/57/2 65/56/2 58/55/2
f 57/57/2 66/58/2 65/56/2
f 56/59/2 66/58/2 57/57/2
f 56/59/2 67/60/2 66/58/2
f 55/61/2 67/60/2 56/59/2
f 55/61/2 68/62/2 67/60/2
f 54/63/2 68/62/2 55/61/2
f 54/63/2 69/64/2 68/62/2
f 53/65/2 69/64/2 54/63/2
f 53/65/2 70/66/2 69/64/2
f 52/67/2 70/66/2 53/65/2
f 52/67/2 71/68/2 70/66/2
f 51/69/2 71/68/2 52/67/2
f 51/69/2 72/70/2 71/68/2
f 50/71/2 72/70/2 51/69/2
f 50/71/2 73/72/2 72/70/2
f 49/73/2 73/72/2 50/71/2
f 96/74/2 73/72/2 49/73/2
f 96/74/2 74/75/2 73/72/2
f 95/76/2 74/75/2 96/74/2
f 95/76/2 75/77/2 74/75/2
f 94/78/2 75/77/2 95/76/2
f 94/78/2 76/79/2 75/77/2
f 93/80/2 76/79/2 94/78/2
f 93/80/2 77/81/2 76/79/2
f 92/82/2 77/81/2 93/80/2
f 92/82/2 78/83/2 77/81/2
f 91/84/2 78/83/2 92/82/2
f 91/84/2 79/85/2 78/83/2
f 90/86/2 79/85/2 91/84/2
f 90/86/2 80/87/2 79/85/2
f 89/88/2 80/87/2 90/86/2
f 89/88/2 81/89/2 80/87/2
f 88/90/2 81/89/2 89/88/2
f 88/90/2 82/91/2 81/89/2
f 87/92/2 82/91/2 88/90/2
f 87/92/2 83/93/2 82/91/2
f 86/94/2 83/93/2 87/92/2
f 86/94/2 84/95/2 83/93/2
f 85/96/2 84/95/2 86/94/2
